solid Created by Gmsh
facet normal 0 0 1
  outer loop
    vertex 0.8182421794856397 0.1844006781566091 0
    vertex 0.7586725654700552 0.08962961249593344 0
    vertex 0.8508697827248662 0.08304206045590229 0
  endloop
endfacet
facet normal 0 -0 1
  outer loop
    vertex 0.7586725654700552 0.08962961249593344 0
    vertex 0.8182421794856397 0.1844006781566091 0
    vertex 0.730144284148031 0.167403810568459 0
  endloop
endfacet
facet normal 0 -0 1
  outer loop
    vertex 0.08872509776596282 0.2520415328384461 0
    vertex 0.185647332504246 0.3032187653445379 0
    vertex 0.08660254037876053 0.3500000000013807 0
  endloop
endfacet
facet normal 0 0 1
  outer loop
    vertex 0.1472281917843546 0.561558390531777 0
    vertex 0.09354634791026567 0.4629640407885232 0
    vertex 0.1956776926822188 0.4783955759377119 0
  endloop
endfacet
facet normal 0 0 1
  outer loop
    vertex 0.1994089234458905 0.8296981761686029 0
    vertex 0.09056972474475221 0.8408174380938682 0
    vertex 0.149493911058757 0.7431601482469433 0
  endloop
endfacet
facet normal 0 0 1
  outer loop
    vertex 0.185647332504246 0.3032187653445379 0
    vertex 0.08872509776596282 0.2520415328384461 0
    vertex 0.1619767221861357 0.2001657094832424 0
  endloop
endfacet
facet normal 0 -0 1
  outer loop
    vertex 0.09354634791026567 0.4629640407885232 0
    vertex 0.1472281917843546 0.561558390531777 0
    vertex 0.06525626353169044 0.5500000000017229 0
  endloop
endfacet
facet normal -0 0 1
  outer loop
    vertex 0.5602634197995822 0.5616780391398716 0
    vertex 0.6523161947243097 0.5046369953108196 0
    vertex 0.6585792406651121 0.5996425384524156 0
  endloop
endfacet
facet normal 0 -0 1
  outer loop
    vertex 0.4546835013987585 0.08234762927774826 0
    vertex 0.5103162003608498 0.161527005980217 0
    vertex 0.4034624110593975 0.1567264185651638 0
  endloop
endfacet
facet normal 0 0 1
  outer loop
    vertex 0.149493911058757 0.7431601482469433 0
    vertex 0.09056972474475221 0.8408174380938682 0
    vertex 0.06578358757522099 0.7469795572487439 0
  endloop
endfacet
facet normal 0 0 1
  outer loop
    vertex 0.5103162003608498 0.161527005980217 0
    vertex 0.4557747645911481 0.2357143606679533 0
    vertex 0.4034624110593975 0.1567264185651638 0
  endloop
endfacet
facet normal 0 0 1
  outer loop
    vertex 0.149493911058757 0.7431601482469433 0
    vertex 0.08885430207259572 0.6509201999022147 0
    vertex 0.1967429917984553 0.6534863612147765 0
  endloop
endfacet
facet normal 0 0 1
  outer loop
    vertex 0.6523161947243097 0.5046369953108196 0
    vertex 0.5602634197995822 0.5616780391398716 0
    vertex 0.5795253711969898 0.4682025156446765 0
  endloop
endfacet
facet normal 0 0 1
  outer loop
    vertex 0.4557747645911481 0.2357143606679533 0
    vertex 0.5664172436040678 0.2434327405092051 0
    vertex 0.499098171815221 0.3170727013466115 0
  endloop
endfacet
facet normal 0 0 1
  outer loop
    vertex 0.1967429917984553 0.6534863612147765 0
    vertex 0.08885430207259572 0.6509201999022147 0
    vertex 0.1472281917843546 0.561558390531777 0
  endloop
endfacet
facet normal -0 0 1
  outer loop
    vertex 0.08660254037876053 0.3500000000013807 0
    vertex 0.185647332504246 0.3032187653445379 0
    vertex 0.1614915047407304 0.3972775503290493 0
  endloop
endfacet
facet normal 0 0 1
  outer loop
    vertex 0.9153656560544171 0.1492667587540349 0
    vertex 0.8182421794856397 0.1844006781566091 0
    vertex 0.8508697827248662 0.08304206045590229 0
  endloop
endfacet
facet normal 0 0 1
  outer loop
    vertex 0.6535898384855425 0.2000000000015831 0
    vertex 0.6562149260162106 0.09805123844595295 0
    vertex 0.730144284148031 0.167403810568459 0
  endloop
endfacet
facet normal -0 0 1
  outer loop
    vertex 0.09056972474475221 0.8408174380938682 0
    vertex 0.1994089234458905 0.8296981761686029 0
    vertex 0.1530678781041716 0.917872462482433 0
  endloop
endfacet
facet normal 0 0 1
  outer loop
    vertex 0.7972616528763404 0.8356038949075959 0
    vertex 0.9042087355342254 0.8413885031923195 0
    vertex 0.8461729413691561 0.9196489343162085 0
  endloop
endfacet
facet normal 0 0 1
  outer loop
    vertex 0.5664172436040678 0.2434327405092051 0
    vertex 0.4557747645911481 0.2357143606679533 0
    vertex 0.5103162003608498 0.161527005980217 0
  endloop
endfacet
facet normal 0 0 1
  outer loop
    vertex 0.2518693992518951 0.2217325686961455 0
    vertex 0.185647332504246 0.3032187653445379 0
    vertex 0.1619767221861357 0.2001657094832424 0
  endloop
endfacet
facet normal 0 -0 1
  outer loop
    vertex 0.3991584436166892 0.4808585198949223 0
    vertex 0.4488835001445501 0.5676473673000906 0
    vertex 0.3489595903653755 0.5673882000271663 0
  endloop
endfacet
facet normal -0 0 1
  outer loop
    vertex 0.4546835013987585 0.08234762927774826 0
    vertex 0.5536498503000198 0.0820529654514504 0
    vertex 0.5103162003608498 0.161527005980217 0
  endloop
endfacet
facet normal 0 0 1
  outer loop
    vertex 0.9042087355342254 0.8413885031923195 0
    vertex 0.7972616528763404 0.8356038949075959 0
    vertex 0.8441725804419961 0.7699010078868198 0
  endloop
endfacet
facet normal -0 0 1
  outer loop
    vertex 0.1967429917984553 0.6534863612147765 0
    vertex 0.2468433119163589 0.565624610483365 0
    vertex 0.2986470233085933 0.6537384782095768 0
  endloop
endfacet
facet normal -0 0 1
  outer loop
    vertex 0.07989182588315169 0.1534846009817473 0
    vertex 0.1554440545901894 0.09549528281076358 0
    vertex 0.1619767221861357 0.2001657094832424 0
  endloop
endfacet
facet normal 0 0 1
  outer loop
    vertex 0.2993969404821603 0.4803405281408104 0
    vertex 0.2468433119163589 0.565624610483365 0
    vertex 0.1956776926822188 0.4783955759377119 0
  endloop
endfacet
facet normal 0 0 1
  outer loop
    vertex 0.2993969404821603 0.4803405281408104 0
    vertex 0.1956776926822188 0.4783955759377119 0
    vertex 0.2494653028838217 0.3940909248794373 0
  endloop
endfacet
facet normal -0 0 1
  outer loop
    vertex 0.6562149260162106 0.09805123844595295 0
    vertex 0.7586725654700552 0.08962961249593344 0
    vertex 0.730144284148031 0.167403810568459 0
  endloop
endfacet
facet normal 0 0 1
  outer loop
    vertex 0.2468433119163589 0.565624610483365 0
    vertex 0.3489595903653755 0.5673882000271663 0
    vertex 0.2986470233085933 0.6537384782095768 0
  endloop
endfacet
facet normal 0 0 1
  outer loop
    vertex 0.4488835001445501 0.5676473673000906 0
    vertex 0.3994753460285051 0.6540725028181407 0
    vertex 0.3489595903653755 0.5673882000271663 0
  endloop
endfacet
facet normal 0 0 1
  outer loop
    vertex 0.2993969404821603 0.4803405281408104 0
    vertex 0.3991584436166892 0.4808585198949223 0
    vertex 0.3489595903653755 0.5673882000271663 0
  endloop
endfacet
facet normal 0 0 1
  outer loop
    vertex 0.1967429917984553 0.6534863612147765 0
    vertex 0.1472281917843546 0.561558390531777 0
    vertex 0.2468433119163589 0.565624610483365 0
  endloop
endfacet
facet normal 0 0 1
  outer loop
    vertex 0.5602634197995822 0.5616780391398716 0
    vertex 0.6585792406651121 0.5996425384524156 0
    vertex 0.5939694584633959 0.6616225155159264 0
  endloop
endfacet
facet normal 0 -0 1
  outer loop
    vertex 0.2996458118888333 0.3073836536239814 0
    vertex 0.3495914710167097 0.3940157268266378 0
    vertex 0.2494653028838217 0.3940909248794373 0
  endloop
endfacet
facet normal 0 -0 1
  outer loop
    vertex 0.08885430207259572 0.6509201999022147 0
    vertex 0.149493911058757 0.7431601482469433 0
    vertex 0.06578358757522099 0.7469795572487439 0
  endloop
endfacet
facet normal 0 0 1
  outer loop
    vertex 0.3495914710167097 0.3940157268266378 0
    vertex 0.2993969404821603 0.4803405281408104 0
    vertex 0.2494653028838217 0.3940909248794373 0
  endloop
endfacet
facet normal 0 0 1
  outer loop
    vertex 0.185647332504246 0.3032187653445379 0
    vertex 0.2996458118888333 0.3073836536239814 0
    vertex 0.2494653028838217 0.3940909248794373 0
  endloop
endfacet
facet normal 0 0 1
  outer loop
    vertex 0.2468433119163589 0.565624610483365 0
    vertex 0.1472281917843546 0.561558390531777 0
    vertex 0.1956776926822188 0.4783955759377119 0
  endloop
endfacet
facet normal -0 0 1
  outer loop
    vertex 0.2468433119163589 0.565624610483365 0
    vertex 0.2993969404821603 0.4803405281408104 0
    vertex 0.3489595903653755 0.5673882000271663 0
  endloop
endfacet
facet normal 0 0 1
  outer loop
    vertex 0.9133974596214023 0.6500000000006928 0
    vertex 0.8274013917808297 0.5991390436996684 0
    vertex 0.9134985383779496 0.5498565072844829 0
  endloop
endfacet
facet normal 0 0 1
  outer loop
    vertex 0.8274013917808297 0.5991390436996684 0
    vertex 0.9133974596214023 0.6500000000006928 0
    vertex 0.8310859473279177 0.6928236199326741 0
  endloop
endfacet
facet normal -0 0 1
  outer loop
    vertex 0.8310859473279177 0.6928236199326741 0
    vertex 0.9133974596214023 0.6500000000006928 0
    vertex 0.9154774538209234 0.7423521885021998 0
  endloop
endfacet
facet normal 0 0 1
  outer loop
    vertex 0.7396590178056635 0.550714811538531 0
    vertex 0.7382658562728507 0.4496518739179274 0
    vertex 0.8264493493339096 0.4998840359050041 0
  endloop
endfacet
facet normal -0 0 1
  outer loop
    vertex 0.7401923788642716 0.3500000000013794 0
    vertex 0.8267949192428349 0.3000000000014016 0
    vertex 0.8264738321444876 0.3999419789875535 0
  endloop
endfacet
facet normal 0 0 1
  outer loop
    vertex 0.4500000000018615 0.9133974596216763 0
    vertex 0.3501362169619662 0.9134761045201363 0
    vertex 0.4000227028286946 0.8268080267265182 0
  endloop
endfacet
facet normal 0 0 1
  outer loop
    vertex 0.7382658562728507 0.4496518739179274 0
    vertex 0.7401923788642716 0.3500000000013794 0
    vertex 0.8264738321444876 0.3999419789875535 0
  endloop
endfacet
facet normal 0 0 1
  outer loop
    vertex 0.4500000000018615 0.9133974596216763 0
    vertex 0.4000000000016644 1 0
    vertex 0.3501362169619662 0.9134761045201363 0
  endloop
endfacet
facet normal -0 0 1
  outer loop
    vertex 0.7382658562728507 0.4496518739179274 0
    vertex 0.8264738321444876 0.3999419789875535 0
    vertex 0.8264493493339096 0.4998840359050041 0
  endloop
endfacet
facet normal 0 0 1
  outer loop
    vertex 0.300162703593529 0.8268888562051568 0
    vertex 0.2508173017626885 0.9138693290130391 0
    vertex 0.1994089234458905 0.8296981761686029 0
  endloop
endfacet
facet normal 0 0 1
  outer loop
    vertex 0.5000000000020587 1 0
    vertex 0.4000000000016644 1 0
    vertex 0.4500000000018615 0.9133974596216763 0
  endloop
endfacet
facet normal 0 0 1
  outer loop
    vertex 0.09354634791026567 0.4629640407885232 0
    vertex 0 0.4000000000016644 0
    vertex 0.08660254037876053 0.3500000000013807 0
  endloop
endfacet
facet normal 0 -0 1
  outer loop
    vertex 0.5996805054806951 0.826980370643347 0
    vertex 0.6500000000007853 0.9133974596218178 0
    vertex 0.5499473815487894 0.9134287322851715 0
  endloop
endfacet
facet normal 0 -0 1
  outer loop
    vertex 1 0.4000000000016644 0
    vertex 1 0.5000000000020587 0
    vertex 0.9133974596216763 0.4500000000018615 0
  endloop
endfacet
facet normal 0 0 1
  outer loop
    vertex 0 0.5000000000020587 0
    vertex 0 0.4000000000016644 0
    vertex 0.09354634791026567 0.4629640407885232 0
  endloop
endfacet
facet normal 0 0 1
  outer loop
    vertex 1 0.4000000000016644 0
    vertex 0.9133974596216763 0.4500000000018615 0
    vertex 0.9133974596215026 0.3500000000015219 0
  endloop
endfacet
facet normal 0 -0 1
  outer loop
    vertex 0.9133974596215026 0.3500000000015219 0
    vertex 0.9133974596216763 0.4500000000018615 0
    vertex 0.8264738321444876 0.3999419789875535 0
  endloop
endfacet
facet normal 0 0 1
  outer loop
    vertex 0.7999999999999998 1 0
    vertex 0.7000000000006934 1 0
    vertex 0.7487723405616641 0.9141062885542134 0
  endloop
endfacet
facet normal 0 -0 1
  outer loop
    vertex 0.8267949192428349 0.3000000000014016 0
    vertex 0.9133974596215026 0.3500000000015219 0
    vertex 0.8264738321444876 0.3999419789875535 0
  endloop
endfacet
facet normal 0 0 1
  outer loop
    vertex 0.6500000000007853 0.9133974596218178 0
    vertex 0.6000000000013869 1 0
    vertex 0.5499473815487894 0.9134287322851715 0
  endloop
endfacet
facet normal 0 0 1
  outer loop
    vertex 0.9133974596216763 0.4500000000018615 0
    vertex 1 0.5000000000020587 0
    vertex 0.9134985383779496 0.5498565072844829 0
  endloop
endfacet
facet normal 0 0 1
  outer loop
    vertex 0.6500000000007853 0.9133974596218178 0
    vertex 0.5996805054806951 0.826980370643347 0
    vertex 0.6975378539360992 0.8282166764871947 0
  endloop
endfacet
facet normal 0 0 1
  outer loop
    vertex 0.9134985383779496 0.5498565072844829 0
    vertex 0.8274013917808297 0.5991390436996684 0
    vertex 0.8264493493339096 0.4998840359050041 0
  endloop
endfacet
facet normal 0 0 1
  outer loop
    vertex 0.3501362169619662 0.9134761045201363 0
    vertex 0.2508173017626885 0.9138693290130391 0
    vertex 0.300162703593529 0.8268888562051568 0
  endloop
endfacet
facet normal 0 0 1
  outer loop
    vertex 0.8274013917808297 0.5991390436996684 0
    vertex 0.7396590178056635 0.550714811538531 0
    vertex 0.8264493493339096 0.4998840359050041 0
  endloop
endfacet
facet normal 0 0 1
  outer loop
    vertex 1 0.6000000000013869 0
    vertex 0.9133974596214023 0.6500000000006928 0
    vertex 0.9134985383779496 0.5498565072844829 0
  endloop
endfacet
facet normal 0 0 1
  outer loop
    vertex 0.300162703593529 0.8268888562051568 0
    vertex 0.1994089234458905 0.8296981761686029 0
    vertex 0.2499286045088647 0.7410578833522425 0
  endloop
endfacet
facet normal 0 0 1
  outer loop
    vertex 0.5000000000020587 1 0
    vertex 0.4500000000018615 0.9133974596216763 0
    vertex 0.5499473815487894 0.9134287322851715 0
  endloop
endfacet
facet normal -0 0 1
  outer loop
    vertex 0.5536498503000198 0.0820529654514504 0
    vertex 0.5999999999989468 0 0
    vertex 0.6562149260162106 0.09805123844595295 0
  endloop
endfacet
facet normal 0 0 1
  outer loop
    vertex 0.3000000000012483 1 0
    vertex 0.2508173017626885 0.9138693290130391 0
    vertex 0.3501362169619662 0.9134761045201363 0
  endloop
endfacet
facet normal 0 0 1
  outer loop
    vertex 0.4999999999986943 0 0
    vertex 0.5999999999989468 0 0
    vertex 0.5536498503000198 0.0820529654514504 0
  endloop
endfacet
facet normal 0 -0 1
  outer loop
    vertex 1 0.5000000000020587 0
    vertex 1 0.6000000000013869 0
    vertex 0.9134985383779496 0.5498565072844829 0
  endloop
endfacet
facet normal -0 0 1
  outer loop
    vertex 0 0.3000000000012483 0
    vertex 0.08872509776596282 0.2520415328384461 0
    vertex 0.08660254037876053 0.3500000000013807 0
  endloop
endfacet
facet normal 0 0 1
  outer loop
    vertex 0.4500000000018615 0.9133974596216763 0
    vertex 0.4000227028286946 0.8268080267265182 0
    vertex 0.5000037838059497 0.8267971038241884 0
  endloop
endfacet
facet normal 0 0 1
  outer loop
    vertex 0.6000000000013869 1 0
    vertex 0.5000000000020587 1 0
    vertex 0.5499473815487894 0.9134287322851715 0
  endloop
endfacet
facet normal 0 0 1
  outer loop
    vertex 0.7000000000006934 1 0
    vertex 0.6500000000007853 0.9133974596218178 0
    vertex 0.7487723405616641 0.9141062885542134 0
  endloop
endfacet
facet normal 0 0 1
  outer loop
    vertex 0.9133974596212823 0.2500000000010818 0
    vertex 1 0.3000000000012483 0
    vertex 0.9133974596215026 0.3500000000015219 0
  endloop
endfacet
facet normal 0 0 1
  outer loop
    vertex 0.3499999999991207 0.0866025403781914 0
    vertex 0.3999999999989749 0 0
    vertex 0.4546835013987585 0.08234762927774826 0
  endloop
endfacet
facet normal 0 0 1
  outer loop
    vertex 0.4000000000016644 1 0
    vertex 0.3000000000012483 1 0
    vertex 0.3501362169619662 0.9134761045201363 0
  endloop
endfacet
facet normal 0 -0 1
  outer loop
    vertex 0.4999999999986943 0 0
    vertex 0.5536498503000198 0.0820529654514504 0
    vertex 0.4546835013987585 0.08234762927774826 0
  endloop
endfacet
facet normal 0 0 1
  outer loop
    vertex 0 0.4000000000016644 0
    vertex 0 0.3000000000012483 0
    vertex 0.08660254037876053 0.3500000000013807 0
  endloop
endfacet
facet normal 0 -0 1
  outer loop
    vertex 1 0.3000000000012483 0
    vertex 1 0.4000000000016644 0
    vertex 0.9133974596215026 0.3500000000015219 0
  endloop
endfacet
facet normal -0 0 1
  outer loop
    vertex 0.4500000000018615 0.9133974596216763 0
    vertex 0.5000037838059497 0.8267971038241884 0
    vertex 0.5499473815487894 0.9134287322851715 0
  endloop
endfacet
facet normal 0 0 1
  outer loop
    vertex 0.2499286045088647 0.7410578833522425 0
    vertex 0.1994089234458905 0.8296981761686029 0
    vertex 0.149493911058757 0.7431601482469433 0
  endloop
endfacet
facet normal 0 -0 1
  outer loop
    vertex 0.9133974596212823 0.2500000000010818 0
    vertex 0.9133974596215026 0.3500000000015219 0
    vertex 0.8267949192428349 0.3000000000014016 0
  endloop
endfacet
facet normal 0 0 1
  outer loop
    vertex 0.5000037838059497 0.8267971038241884 0
    vertex 0.5996805054806951 0.826980370643347 0
    vertex 0.5499473815487894 0.9134287322851715 0
  endloop
endfacet
facet normal 0 0 1
  outer loop
    vertex 0.3999999999989749 0 0
    vertex 0.4999999999986943 0 0
    vertex 0.4546835013987585 0.08234762927774826 0
  endloop
endfacet
facet normal 0 0 1
  outer loop
    vertex 0.7401923788640703 0.2500000000013166 0
    vertex 0.8267949192428349 0.3000000000014016 0
    vertex 0.7401923788642716 0.3500000000013794 0
  endloop
endfacet
facet normal 0 0 1
  outer loop
    vertex 0.2499286045088647 0.7410578833522425 0
    vertex 0.149493911058757 0.7431601482469433 0
    vertex 0.1967429917984553 0.6534863612147765 0
  endloop
endfacet
facet normal 0 0 1
  outer loop
    vertex 0.6420307029351833 0.3979112435011097 0
    vertex 0.7382658562728507 0.4496518739179274 0
    vertex 0.6523161947243097 0.5046369953108196 0
  endloop
endfacet
facet normal 0 -0 1
  outer loop
    vertex 0.69999999999921 0 0
    vertex 0.7586725654700552 0.08962961249593344 0
    vertex 0.6562149260162106 0.09805123844595295 0
  endloop
endfacet
facet normal 0 -0 1
  outer loop
    vertex 1 0.7999999999999998 0
    vertex 1 0.8999999999995836 0
    vertex 0.9042087355342254 0.8413885031923195 0
  endloop
endfacet
facet normal -0 0 1
  outer loop
    vertex 0.6420307029351833 0.3979112435011097 0
    vertex 0.7401923788642716 0.3500000000013794 0
    vertex 0.7382658562728507 0.4496518739179274 0
  endloop
endfacet
facet normal 0 0 1
  outer loop
    vertex 0.5999999999989468 0 0
    vertex 0.69999999999921 0 0
    vertex 0.6562149260162106 0.09805123844595295 0
  endloop
endfacet
facet normal 0 -0 1
  outer loop
    vertex 0.6560315066610382 0.2957709066667542 0
    vertex 0.7401923788642716 0.3500000000013794 0
    vertex 0.6420307029351833 0.3979112435011097 0
  endloop
endfacet
facet normal -0 0 1
  outer loop
    vertex 0.6523161947243097 0.5046369953108196 0
    vertex 0.7382658562728507 0.4496518739179274 0
    vertex 0.7396590178056635 0.550714811538531 0
  endloop
endfacet
facet normal 0 -0 1
  outer loop
    vertex 0.7401923788640703 0.2500000000013166 0
    vertex 0.7401923788642716 0.3500000000013794 0
    vertex 0.6560315066610382 0.2957709066667542 0
  endloop
endfacet
facet normal 0 0 1
  outer loop
    vertex 0.3000000000012483 1 0
    vertex 0.2000000000008322 1 0
    vertex 0.2508173017626885 0.9138693290130391 0
  endloop
endfacet
facet normal 0 0 1
  outer loop
    vertex 1 0.7999999999999998 0
    vertex 0.9042087355342254 0.8413885031923195 0
    vertex 0.9154774538209234 0.7423521885021998 0
  endloop
endfacet
facet normal 0 -0 1
  outer loop
    vertex 0.6535898384855425 0.2000000000015831 0
    vertex 0.6560315066610382 0.2957709066667542 0
    vertex 0.5664172436040678 0.2434327405092051 0
  endloop
endfacet
facet normal 0 0 1
  outer loop
    vertex 0.6523161947243097 0.5046369953108196 0
    vertex 0.7396590178056635 0.550714811538531 0
    vertex 0.6585792406651121 0.5996425384524156 0
  endloop
endfacet
facet normal 0 0 1
  outer loop
    vertex 0 0.3000000000012483 0
    vertex 0 0.2000000000008322 0
    vertex 0.08872509776596282 0.2520415328384461 0
  endloop
endfacet
facet normal 0 0 1
  outer loop
    vertex 0.9133974596214023 0.6500000000006928 0
    vertex 1 0.7000000000006934 0
    vertex 0.9154774538209234 0.7423521885021998 0
  endloop
endfacet
facet normal 0 -0 1
  outer loop
    vertex 1 0.7000000000006934 0
    vertex 1 0.7999999999999998 0
    vertex 0.9154774538209234 0.7423521885021998 0
  endloop
endfacet
facet normal 0 -0 1
  outer loop
    vertex 0.8182421794856397 0.1844006781566091 0
    vertex 0.8267949192428349 0.3000000000014016 0
    vertex 0.7401923788640703 0.2500000000013166 0
  endloop
endfacet
facet normal -0 0 1
  outer loop
    vertex 0.6585792406651121 0.5996425384524156 0
    vertex 0.7396590178056635 0.550714811538531 0
    vertex 0.7443645751500544 0.6441194506563531 0
  endloop
endfacet
facet normal 0 0 1
  outer loop
    vertex 0.9133974596212823 0.2500000000010818 0
    vertex 0.8182421794856397 0.1844006781566091 0
    vertex 0.9153656560544171 0.1492667587540349 0
  endloop
endfacet
facet normal -0 0 1
  outer loop
    vertex 0.5996805054806951 0.826980370643347 0
    vertex 0.6417644007840324 0.7449476324411425 0
    vertex 0.6975378539360992 0.8282166764871947 0
  endloop
endfacet
facet normal 0 0 1
  outer loop
    vertex 0.5000037838059497 0.8267971038241884 0
    vertex 0.4000227028286946 0.8268080267265182 0
    vertex 0.4500044144404208 0.7401949275428894 0
  endloop
endfacet
facet normal 0 0 1
  outer loop
    vertex 1 0.2000000000008322 0
    vertex 0.9133974596212823 0.2500000000010818 0
    vertex 0.9153656560544171 0.1492667587540349 0
  endloop
endfacet
facet normal -0 0 1
  outer loop
    vertex 0.6500000000007853 0.9133974596218178 0
    vertex 0.6975378539360992 0.8282166764871947 0
    vertex 0.7487723405616641 0.9141062885542134 0
  endloop
endfacet
facet normal 0 -0 1
  outer loop
    vertex 1 0.2000000000008322 0
    vertex 1 0.3000000000012483 0
    vertex 0.9133974596212823 0.2500000000010818 0
  endloop
endfacet
facet normal 0 0 1
  outer loop
    vertex 0.7401923788640703 0.2500000000013166 0
    vertex 0.6560315066610382 0.2957709066667542 0
    vertex 0.6535898384855425 0.2000000000015831 0
  endloop
endfacet
facet normal -0 0 1
  outer loop
    vertex 0.7443645751500544 0.6441194506563531 0
    vertex 0.8274013917808297 0.5991390436996684 0
    vertex 0.8310859473279177 0.6928236199326741 0
  endloop
endfacet
facet normal 0 0 1
  outer loop
    vertex 0.7443645751500544 0.6441194506563531 0
    vertex 0.7396590178056635 0.550714811538531 0
    vertex 0.8274013917808297 0.5991390436996684 0
  endloop
endfacet
facet normal 0 -0 1
  outer loop
    vertex 1 0.100000000000416 0
    vertex 1 0.2000000000008322 0
    vertex 0.9153656560544171 0.1492667587540349 0
  endloop
endfacet
facet normal 0 0 1
  outer loop
    vertex 0.2999999999992664 0 0
    vertex 0.3999999999989749 0 0
    vertex 0.3499999999991207 0.0866025403781914 0
  endloop
endfacet
facet normal 0 -0 1
  outer loop
    vertex 0.9133974596216763 0.4500000000018615 0
    vertex 0.9134985383779496 0.5498565072844829 0
    vertex 0.8264493493339096 0.4998840359050041 0
  endloop
endfacet
facet normal 0 0 1
  outer loop
    vertex 0.3988180974224576 0.3078613198673571 0
    vertex 0.3500000000031309 0.2205771365975206 0
    vertex 0.4557747645911481 0.2357143606679533 0
  endloop
endfacet
facet normal 0 0 1
  outer loop
    vertex 0.69999999999921 0 0
    vertex 0.7999999999994734 0 0
    vertex 0.7586725654700552 0.08962961249593344 0
  endloop
endfacet
facet normal 0 0 1
  outer loop
    vertex 0.7487723405616641 0.9141062885542134 0
    vertex 0.6975378539360992 0.8282166764871947 0
    vertex 0.7972616528763404 0.8356038949075959 0
  endloop
endfacet
facet normal 0 0 1
  outer loop
    vertex 0.5000037838059497 0.8267971038241884 0
    vertex 0.4500044144404208 0.7401949275428894 0
    vertex 0.5480792490754001 0.7413029026824636 0
  endloop
endfacet
facet normal 0 0 1
  outer loop
    vertex 0 0.8999999999995836 0
    vertex 0 0.7999999999999998 0
    vertex 0.09056972474475221 0.8408174380938682 0
  endloop
endfacet
facet normal -0 0 1
  outer loop
    vertex 0.5000037838059497 0.8267971038241884 0
    vertex 0.5480792490754001 0.7413029026824636 0
    vertex 0.5996805054806951 0.826980370643347 0
  endloop
endfacet
facet normal 0 0 1
  outer loop
    vertex 0.4000227028286946 0.8268080267265182 0
    vertex 0.3501362169619662 0.9134761045201363 0
    vertex 0.300162703593529 0.8268888562051568 0
  endloop
endfacet
facet normal 0 0 1
  outer loop
    vertex 0.5996805054806951 0.826980370643347 0
    vertex 0.5480792490754001 0.7413029026824636 0
    vertex 0.6417644007840324 0.7449476324411425 0
  endloop
endfacet
facet normal 0 -0 1
  outer loop
    vertex 0.3495914710167097 0.3940157268266378 0
    vertex 0.3991584436166892 0.4808585198949223 0
    vertex 0.2993969404821603 0.4803405281408104 0
  endloop
endfacet
facet normal 0 -0 1
  outer loop
    vertex 0.2999999999992664 0 0
    vertex 0.3499999999991207 0.0866025403781914 0
    vertex 0.2540998849589767 0.08154625002783644 0
  endloop
endfacet
facet normal 0 0 1
  outer loop
    vertex 0.7000000000006934 1 0
    vertex 0.6000000000013869 1 0
    vertex 0.6500000000007853 0.9133974596218178 0
  endloop
endfacet
facet normal 0 -0 1
  outer loop
    vertex 1 0.6000000000013869 0
    vertex 1 0.7000000000006934 0
    vertex 0.9133974596214023 0.6500000000006928 0
  endloop
endfacet
facet normal 0 0 1
  outer loop
    vertex 0 0.7000000000006934 0
    vertex 0 0.6000000000013869 0
    vertex 0.08885430207259572 0.6509201999022147 0
  endloop
endfacet
facet normal 0 0 1
  outer loop
    vertex 0.4977584932874627 0.6548850855105044 0
    vertex 0.4500044144404208 0.7401949275428894 0
    vertex 0.3994753460285051 0.6540725028181407 0
  endloop
endfacet
facet normal 0 0 1
  outer loop
    vertex 0.4977584932874627 0.6548850855105044 0
    vertex 0.4488835001445501 0.5676473673000906 0
    vertex 0.5602634197995822 0.5616780391398716 0
  endloop
endfacet
facet normal 0 0 1
  outer loop
    vertex 0.5000000000019647 0.4803847577319527 0
    vertex 0.4488835001445501 0.5676473673000906 0
    vertex 0.3991584436166892 0.4808585198949223 0
  endloop
endfacet
facet normal 0 0 1
  outer loop
    vertex 0.5480792490754001 0.7413029026824636 0
    vertex 0.4500044144404208 0.7401949275428894 0
    vertex 0.4977584932874627 0.6548850855105044 0
  endloop
endfacet
facet normal 0 0 1
  outer loop
    vertex 0.4977584932874627 0.6548850855105044 0
    vertex 0.3994753460285051 0.6540725028181407 0
    vertex 0.4488835001445501 0.5676473673000906 0
  endloop
endfacet
facet normal 0 0 1
  outer loop
    vertex 0.1999999999995579 0 0
    vertex 0.2999999999992664 0 0
    vertex 0.2540998849589767 0.08154625002783644 0
  endloop
endfacet
facet normal 0 0 1
  outer loop
    vertex 0.5000000000019647 0.4803847577319527 0
    vertex 0.3991584436166892 0.4808585198949223 0
    vertex 0.4489250795907387 0.3944008045024401 0
  endloop
endfacet
facet normal 0 0 1
  outer loop
    vertex 0.5602634197995822 0.5616780391398716 0
    vertex 0.4488835001445501 0.5676473673000906 0
    vertex 0.5000000000019647 0.4803847577319527 0
  endloop
endfacet
facet normal 0 0 1
  outer loop
    vertex 0.9133974596212823 0.2500000000010818 0
    vertex 0.8267949192428349 0.3000000000014016 0
    vertex 0.8182421794856397 0.1844006781566091 0
  endloop
endfacet
facet normal 0 0 1
  outer loop
    vertex 0.3988180974224576 0.3078613198673571 0
    vertex 0.2996458118888333 0.3073836536239814 0
    vertex 0.3500000000031309 0.2205771365975206 0
  endloop
endfacet
facet normal 0 0 1
  outer loop
    vertex 0.09999999999981467 0 0
    vertex 0.1999999999995579 0 0
    vertex 0.1554440545901894 0.09549528281076358 0
  endloop
endfacet
facet normal 0 0 1
  outer loop
    vertex 0.4489250795907387 0.3944008045024401 0
    vertex 0.3495914710167097 0.3940157268266378 0
    vertex 0.3988180974224576 0.3078613198673571 0
  endloop
endfacet
facet normal 0 0 1
  outer loop
    vertex 0.5000000000019647 0.4803847577319527 0
    vertex 0.4489250795907387 0.3944008045024401 0
    vertex 0.5430165385239094 0.396401542539629 0
  endloop
endfacet
facet normal 0 0 1
  outer loop
    vertex 0.3500000000031309 0.2205771365975206 0
    vertex 0.2996458118888333 0.3073836536239814 0
    vertex 0.2518693992518951 0.2217325686961455 0
  endloop
endfacet
facet normal 0 0 1
  outer loop
    vertex 0.4489250795907387 0.3944008045024401 0
    vertex 0.3991584436166892 0.4808585198949223 0
    vertex 0.3495914710167097 0.3940157268266378 0
  endloop
endfacet
facet normal 0 0 1
  outer loop
    vertex 0.1554440545901894 0.09549528281076358 0
    vertex 0.1999999999995579 0 0
    vertex 0.2540998849589767 0.08154625002783644 0
  endloop
endfacet
facet normal 0 -0 1
  outer loop
    vertex 0.2518693992518951 0.2217325686961455 0
    vertex 0.2996458118888333 0.3073836536239814 0
    vertex 0.185647332504246 0.3032187653445379 0
  endloop
endfacet
facet normal 0 0 1
  outer loop
    vertex 0.3988180974224576 0.3078613198673571 0
    vertex 0.3495914710167097 0.3940157268266378 0
    vertex 0.2996458118888333 0.3073836536239814 0
  endloop
endfacet
facet normal 0 0 1
  outer loop
    vertex 0.300162703593529 0.8268888562051568 0
    vertex 0.2499286045088647 0.7410578833522425 0
    vertex 0.3499322952340005 0.7408013113617695 0
  endloop
endfacet
facet normal 0 -0 1
  outer loop
    vertex 0.8264738321444876 0.3999419789875535 0
    vertex 0.9133974596216763 0.4500000000018615 0
    vertex 0.8264493493339096 0.4998840359050041 0
  endloop
endfacet
facet normal 0 0 1
  outer loop
    vertex 0.4500044144404208 0.7401949275428894 0
    vertex 0.4000227028286946 0.8268080267265182 0
    vertex 0.3499322952340005 0.7408013113617695 0
  endloop
endfacet
facet normal 0 -0 1
  outer loop
    vertex 0.3994753460285051 0.6540725028181407 0
    vertex 0.4500044144404208 0.7401949275428894 0
    vertex 0.3499322952340005 0.7408013113617695 0
  endloop
endfacet
facet normal 0 0 1
  outer loop
    vertex 0.4000227028286946 0.8268080267265182 0
    vertex 0.300162703593529 0.8268888562051568 0
    vertex 0.3499322952340005 0.7408013113617695 0
  endloop
endfacet
facet normal 0 0 1
  outer loop
    vertex 0.1956776926822188 0.4783955759377119 0
    vertex 0.09354634791026567 0.4629640407885232 0
    vertex 0.1614915047407304 0.3972775503290493 0
  endloop
endfacet
facet normal 0 0 1
  outer loop
    vertex 0.1619767221861357 0.2001657094832424 0
    vertex 0.1554440545901894 0.09549528281076358 0
    vertex 0.2231000816164675 0.1513870466406804 0
  endloop
endfacet
facet normal 0 -0 1
  outer loop
    vertex 0.3489595903653755 0.5673882000271663 0
    vertex 0.3994753460285051 0.6540725028181407 0
    vertex 0.2986470233085933 0.6537384782095768 0
  endloop
endfacet
facet normal 0 0 1
  outer loop
    vertex 0.2499286045088647 0.7410578833522425 0
    vertex 0.1967429917984553 0.6534863612147765 0
    vertex 0.2986470233085933 0.6537384782095768 0
  endloop
endfacet
facet normal 0 0 1
  outer loop
    vertex 0.3994753460285051 0.6540725028181407 0
    vertex 0.3499322952340005 0.7408013113617695 0
    vertex 0.2986470233085933 0.6537384782095768 0
  endloop
endfacet
facet normal 0 0 1
  outer loop
    vertex 0.3499322952340005 0.7408013113617695 0
    vertex 0.2499286045088647 0.7410578833522425 0
    vertex 0.2986470233085933 0.6537384782095768 0
  endloop
endfacet
facet normal 0 -0 1
  outer loop
    vertex 0.1994089234458905 0.8296981761686029 0
    vertex 0.2508173017626885 0.9138693290130391 0
    vertex 0.1530678781041716 0.917872462482433 0
  endloop
endfacet
facet normal -0 0 1
  outer loop
    vertex 0.7487723405616641 0.9141062885542134 0
    vertex 0.7972616528763404 0.8356038949075959 0
    vertex 0.8461729413691561 0.9196489343162085 0
  endloop
endfacet
facet normal 0 0 1
  outer loop
    vertex 0.8999999999995836 1 0
    vertex 0.7999999999999998 1 0
    vertex 0.8461729413691561 0.9196489343162085 0
  endloop
endfacet
facet normal 0 0 1
  outer loop
    vertex 0.2000000000008322 1 0
    vertex 0.100000000000416 1 0
    vertex 0.1530678781041716 0.917872462482433 0
  endloop
endfacet
facet normal 0 0 1
  outer loop
    vertex 0 0.2000000000008322 0
    vertex 0 0.100000000000416 0
    vertex 0.07989182588315169 0.1534846009817473 0
  endloop
endfacet
facet normal 0 0 1
  outer loop
    vertex 0.7999999999994734 0 0
    vertex 0.8999999999997368 0 0
    vertex 0.8508697827248662 0.08304206045590229 0
  endloop
endfacet
facet normal 0 0 1
  outer loop
    vertex 0.6562149260162106 0.09805123844595295 0
    vertex 0.6535898384855425 0.2000000000015831 0
    vertex 0.5907262780271466 0.1542297873709855 0
  endloop
endfacet
facet normal -0 0 1
  outer loop
    vertex 0.3988180974224576 0.3078613198673571 0
    vertex 0.4557747645911481 0.2357143606679533 0
    vertex 0.499098171815221 0.3170727013466115 0
  endloop
endfacet
facet normal 0 0 1
  outer loop
    vertex 0.5430165385239094 0.396401542539629 0
    vertex 0.4489250795907387 0.3944008045024401 0
    vertex 0.499098171815221 0.3170727013466115 0
  endloop
endfacet
facet normal 0 0 1
  outer loop
    vertex 0.7972616528763404 0.8356038949075959 0
    vertex 0.6975378539360992 0.8282166764871947 0
    vertex 0.7452609801537944 0.7423036384484352 0
  endloop
endfacet
facet normal 0 0 1
  outer loop
    vertex 0.1472281917843546 0.561558390531777 0
    vertex 0.08885430207259572 0.6509201999022147 0
    vertex 0.06525626353169044 0.5500000000017229 0
  endloop
endfacet
facet normal 0 0 1
  outer loop
    vertex 0.6417644007840324 0.7449476324411425 0
    vertex 0.5480792490754001 0.7413029026824636 0
    vertex 0.5939694584633959 0.6616225155159264 0
  endloop
endfacet
facet normal -0 0 1
  outer loop
    vertex 0.4977584932874627 0.6548850855105044 0
    vertex 0.5602634197995822 0.5616780391398716 0
    vertex 0.5939694584633959 0.6616225155159264 0
  endloop
endfacet
facet normal 0 0 1
  outer loop
    vertex 0.6535898384855425 0.2000000000015831 0
    vertex 0.5664172436040678 0.2434327405092051 0
    vertex 0.5907262780271466 0.1542297873709855 0
  endloop
endfacet
facet normal 0 0 1
  outer loop
    vertex 0.7999999999999998 1 0
    vertex 0.7487723405616641 0.9141062885542134 0
    vertex 0.8461729413691561 0.9196489343162085 0
  endloop
endfacet
facet normal 0 0 1
  outer loop
    vertex 0.2508173017626885 0.9138693290130391 0
    vertex 0.2000000000008322 1 0
    vertex 0.1530678781041716 0.917872462482433 0
  endloop
endfacet
facet normal 0 0 1
  outer loop
    vertex 0.08872509776596282 0.2520415328384461 0
    vertex 0 0.2000000000008322 0
    vertex 0.07989182588315169 0.1534846009817473 0
  endloop
endfacet
facet normal 0 0 1
  outer loop
    vertex 0.7586725654700552 0.08962961249593344 0
    vertex 0.7999999999994734 0 0
    vertex 0.8508697827248662 0.08304206045590229 0
  endloop
endfacet
facet normal 0 0 1
  outer loop
    vertex 0.6420307029351833 0.3979112435011097 0
    vertex 0.5430165385239094 0.396401542539629 0
    vertex 0.5814748201941472 0.3274276782173589 0
  endloop
endfacet
facet normal 0 0 1
  outer loop
    vertex 0.5430165385239094 0.396401542539629 0
    vertex 0.6420307029351833 0.3979112435011097 0
    vertex 0.5795253711969898 0.4682025156446765 0
  endloop
endfacet
facet normal 0 0 1
  outer loop
    vertex 0.4489250795907387 0.3944008045024401 0
    vertex 0.3988180974224576 0.3078613198673571 0
    vertex 0.499098171815221 0.3170727013466115 0
  endloop
endfacet
facet normal 0 0 1
  outer loop
    vertex 0.09056972474475221 0.8408174380938682 0
    vertex 0 0.7999999999999998 0
    vertex 0.06578358757522099 0.7469795572487439 0
  endloop
endfacet
facet normal -0 0 1
  outer loop
    vertex 0 0.7000000000006934 0
    vertex 0.08885430207259572 0.6509201999022147 0
    vertex 0.06578358757522099 0.7469795572487439 0
  endloop
endfacet
facet normal 0 0 1
  outer loop
    vertex 0.7443645751500544 0.6441194506563531 0
    vertex 0.8310859473279177 0.6928236199326741 0
    vertex 0.7452609801537944 0.7423036384484352 0
  endloop
endfacet
facet normal 0 0 1
  outer loop
    vertex 0.6975378539360992 0.8282166764871947 0
    vertex 0.6417644007840324 0.7449476324411425 0
    vertex 0.7452609801537944 0.7423036384484352 0
  endloop
endfacet
facet normal 0 0 1
  outer loop
    vertex 0.8182421794856397 0.1844006781566091 0
    vertex 0.7401923788640703 0.2500000000013166 0
    vertex 0.730144284148031 0.167403810568459 0
  endloop
endfacet
facet normal -0 0 1
  outer loop
    vertex 0 0.5000000000020587 0
    vertex 0.09354634791026567 0.4629640407885232 0
    vertex 0.06525626353169044 0.5500000000017229 0
  endloop
endfacet
facet normal 0 0 1
  outer loop
    vertex 0.08885430207259572 0.6509201999022147 0
    vertex 0 0.6000000000013869 0
    vertex 0.06525626353169044 0.5500000000017229 0
  endloop
endfacet
facet normal 0 -0 1
  outer loop
    vertex 0.185647332504246 0.3032187653445379 0
    vertex 0.2494653028838217 0.3940909248794373 0
    vertex 0.1614915047407304 0.3972775503290493 0
  endloop
endfacet
facet normal 0 0 1
  outer loop
    vertex 0.5602634197995822 0.5616780391398716 0
    vertex 0.5000000000019647 0.4803847577319527 0
    vertex 0.5795253711969898 0.4682025156446765 0
  endloop
endfacet
facet normal 0 -0 1
  outer loop
    vertex 1 0.8999999999995836 0
    vertex 1 1 0
    vertex 0.9267949192431238 0.9267949192431238 0
  endloop
endfacet
facet normal 0 0 1
  outer loop
    vertex 1 1 0
    vertex 0.8999999999995836 1 0
    vertex 0.9267949192431238 0.9267949192431238 0
  endloop
endfacet
facet normal 0 0 1
  outer loop
    vertex 0 1 0
    vertex 0 0.8999999999995836 0
    vertex 0.07320508075687601 0.9267949192431241 0
  endloop
endfacet
facet normal 0 -0 1
  outer loop
    vertex 1 0 0
    vertex 1 0.100000000000416 0
    vertex 0.9267949192427987 0.07320508075724225 0
  endloop
endfacet
facet normal 0 0 1
  outer loop
    vertex 0.8999999999997368 0 0
    vertex 1 0 0
    vertex 0.9267949192427987 0.07320508075724225 0
  endloop
endfacet
facet normal 0 0 1
  outer loop
    vertex 0 0 0
    vertex 0.09999999999981467 0 0
    vertex 0.07320508075662228 0.07320508075678341 0
  endloop
endfacet
facet normal 0 0 1
  outer loop
    vertex 0 0.100000000000416 0
    vertex 0 0 0
    vertex 0.07320508075662228 0.07320508075678341 0
  endloop
endfacet
facet normal 0 0 1
  outer loop
    vertex 0.100000000000416 1 0
    vertex 0 1 0
    vertex 0.07320508075687601 0.9267949192431241 0
  endloop
endfacet
facet normal 0 0 1
  outer loop
    vertex 0.9154774538209234 0.7423521885021998 0
    vertex 0.9042087355342254 0.8413885031923195 0
    vertex 0.8441725804419961 0.7699010078868198 0
  endloop
endfacet
facet normal 0 0 1
  outer loop
    vertex 0.6560315066610382 0.2957709066667542 0
    vertex 0.6420307029351833 0.3979112435011097 0
    vertex 0.5814748201941472 0.3274276782173589 0
  endloop
endfacet
facet normal 0 -0 1
  outer loop
    vertex 0.6420307029351833 0.3979112435011097 0
    vertex 0.6523161947243097 0.5046369953108196 0
    vertex 0.5795253711969898 0.4682025156446765 0
  endloop
endfacet
facet normal 0 0 1
  outer loop
    vertex 0.7972616528763404 0.8356038949075959 0
    vertex 0.7452609801537944 0.7423036384484352 0
    vertex 0.8441725804419961 0.7699010078868198 0
  endloop
endfacet
facet normal 0 0 1
  outer loop
    vertex 0.5664172436040678 0.2434327405092051 0
    vertex 0.5103162003608498 0.161527005980217 0
    vertex 0.5907262780271466 0.1542297873709855 0
  endloop
endfacet
facet normal 0 0 1
  outer loop
    vertex 0.09354634791026567 0.4629640407885232 0
    vertex 0.08660254037876053 0.3500000000013807 0
    vertex 0.1614915047407304 0.3972775503290493 0
  endloop
endfacet
facet normal 0 0 1
  outer loop
    vertex 0.5480792490754001 0.7413029026824636 0
    vertex 0.4977584932874627 0.6548850855105044 0
    vertex 0.5939694584633959 0.6616225155159264 0
  endloop
endfacet
facet normal 0 0 1
  outer loop
    vertex 0.2494653028838217 0.3940909248794373 0
    vertex 0.1956776926822188 0.4783955759377119 0
    vertex 0.1614915047407304 0.3972775503290493 0
  endloop
endfacet
facet normal -0 0 1
  outer loop
    vertex 0.7452609801537944 0.7423036384484352 0
    vertex 0.8310859473279177 0.6928236199326741 0
    vertex 0.8441725804419961 0.7699010078868198 0
  endloop
endfacet
facet normal 0 -0 1
  outer loop
    vertex 0.7443645751500544 0.6441194506563531 0
    vertex 0.7452609801537944 0.7423036384484352 0
    vertex 0.6705771365937371 0.6705771365948434 0
  endloop
endfacet
facet normal 0 0 1
  outer loop
    vertex 0.7452609801537944 0.7423036384484352 0
    vertex 0.6417644007840324 0.7449476324411425 0
    vertex 0.6705771365937371 0.6705771365948434 0
  endloop
endfacet
facet normal 0 0 1
  outer loop
    vertex 0.08872509776596282 0.2520415328384461 0
    vertex 0.07989182588315169 0.1534846009817473 0
    vertex 0.1619767221861357 0.2001657094832424 0
  endloop
endfacet
facet normal -0 0 1
  outer loop
    vertex 0.1554440545901894 0.09549528281076358 0
    vertex 0.2540998849589767 0.08154625002783644 0
    vertex 0.2231000816164675 0.1513870466406804 0
  endloop
endfacet
facet normal -0 0 1
  outer loop
    vertex 0.3499999999991207 0.0866025403781914 0
    vertex 0.4546835013987585 0.08234762927774826 0
    vertex 0.4034624110593975 0.1567264185651638 0
  endloop
endfacet
facet normal 0 -0 1
  outer loop
    vertex 0.3499999999991207 0.0866025403781914 0
    vertex 0.4034624110593975 0.1567264185651638 0
    vertex 0.3000000000033771 0.1535898384893526 0
  endloop
endfacet
facet normal 0 0 1
  outer loop
    vertex 0.2540998849589767 0.08154625002783644 0
    vertex 0.3499999999991207 0.0866025403781914 0
    vertex 0.3000000000033771 0.1535898384893526 0
  endloop
endfacet
facet normal 0 0 1
  outer loop
    vertex 0 0.7999999999999998 0
    vertex 0 0.7000000000006934 0
    vertex 0.06578358757522099 0.7469795572487439 0
  endloop
endfacet
facet normal 0 0 1
  outer loop
    vertex 0.4557747645911481 0.2357143606679533 0
    vertex 0.3500000000031309 0.2205771365975206 0
    vertex 0.4034624110593975 0.1567264185651638 0
  endloop
endfacet
facet normal 0 0 1
  outer loop
    vertex 0.4034624110593975 0.1567264185651638 0
    vertex 0.3500000000031309 0.2205771365975206 0
    vertex 0.3000000000033771 0.1535898384893526 0
  endloop
endfacet
facet normal 0 0 1
  outer loop
    vertex 0.3500000000031309 0.2205771365975206 0
    vertex 0.2518693992518951 0.2217325686961455 0
    vertex 0.3000000000033771 0.1535898384893526 0
  endloop
endfacet
facet normal 0 0 1
  outer loop
    vertex 0.7401923788640703 0.2500000000013166 0
    vertex 0.6535898384855425 0.2000000000015831 0
    vertex 0.730144284148031 0.167403810568459 0
  endloop
endfacet
facet normal 0 0 1
  outer loop
    vertex 0.5430165385239094 0.396401542539629 0
    vertex 0.499098171815221 0.3170727013466115 0
    vertex 0.5814748201941472 0.3274276782173589 0
  endloop
endfacet
facet normal 0 0 1
  outer loop
    vertex 0 0.6000000000013869 0
    vertex 0 0.5000000000020587 0
    vertex 0.06525626353169044 0.5500000000017229 0
  endloop
endfacet
facet normal 0 0 1
  outer loop
    vertex 0.1530678781041716 0.917872462482433 0
    vertex 0.100000000000416 1 0
    vertex 0.07320508075687601 0.9267949192431241 0
  endloop
endfacet
facet normal 0 0 1
  outer loop
    vertex 0.07989182588315169 0.1534846009817473 0
    vertex 0 0.100000000000416 0
    vertex 0.07320508075662228 0.07320508075678341 0
  endloop
endfacet
facet normal 0 0 1
  outer loop
    vertex 0.8999999999995836 1 0
    vertex 0.8461729413691561 0.9196489343162085 0
    vertex 0.9267949192431238 0.9267949192431238 0
  endloop
endfacet
facet normal 0 0 1
  outer loop
    vertex 0.8508697827248662 0.08304206045590229 0
    vertex 0.8999999999997368 0 0
    vertex 0.9267949192427987 0.07320508075724225 0
  endloop
endfacet
facet normal 0 0 1
  outer loop
    vertex 0.5000000000019647 0.4803847577319527 0
    vertex 0.5430165385239094 0.396401542539629 0
    vertex 0.5795253711969898 0.4682025156446765 0
  endloop
endfacet
facet normal 0 0 1
  outer loop
    vertex 0.6417644007840324 0.7449476324411425 0
    vertex 0.5939694584633959 0.6616225155159264 0
    vertex 0.6705771365937371 0.6705771365948434 0
  endloop
endfacet
facet normal 0 0 1
  outer loop
    vertex 0.5536498503000198 0.0820529654514504 0
    vertex 0.6562149260162106 0.09805123844595295 0
    vertex 0.5907262780271466 0.1542297873709855 0
  endloop
endfacet
facet normal 0 0 1
  outer loop
    vertex 0.9042087355342254 0.8413885031923195 0
    vertex 1 0.8999999999995836 0
    vertex 0.9267949192431238 0.9267949192431238 0
  endloop
endfacet
facet normal 0 0 1
  outer loop
    vertex 1 0.100000000000416 0
    vertex 0.9153656560544171 0.1492667587540349 0
    vertex 0.9267949192427987 0.07320508075724225 0
  endloop
endfacet
facet normal -0 0 1
  outer loop
    vertex 0 0.8999999999995836 0
    vertex 0.09056972474475221 0.8408174380938682 0
    vertex 0.07320508075687601 0.9267949192431241 0
  endloop
endfacet
facet normal 0 -0 1
  outer loop
    vertex 0.09999999999981467 0 0
    vertex 0.1554440545901894 0.09549528281076358 0
    vertex 0.07320508075662228 0.07320508075678341 0
  endloop
endfacet
facet normal 0 0 1
  outer loop
    vertex 0.5664172436040678 0.2434327405092051 0
    vertex 0.6560315066610382 0.2957709066667542 0
    vertex 0.5814748201941472 0.3274276782173589 0
  endloop
endfacet
facet normal -0 0 1
  outer loop
    vertex 0.499098171815221 0.3170727013466115 0
    vertex 0.5664172436040678 0.2434327405092051 0
    vertex 0.5814748201941472 0.3274276782173589 0
  endloop
endfacet
facet normal 0 0 1
  outer loop
    vertex 0.6585792406651121 0.5996425384524156 0
    vertex 0.7443645751500544 0.6441194506563531 0
    vertex 0.6705771365937371 0.6705771365948434 0
  endloop
endfacet
facet normal 0 0 1
  outer loop
    vertex 0.8310859473279177 0.6928236199326741 0
    vertex 0.9154774538209234 0.7423521885021998 0
    vertex 0.8441725804419961 0.7699010078868198 0
  endloop
endfacet
facet normal 0 -0 1
  outer loop
    vertex 0.09056972474475221 0.8408174380938682 0
    vertex 0.1530678781041716 0.917872462482433 0
    vertex 0.07320508075687601 0.9267949192431241 0
  endloop
endfacet
facet normal -0 0 1
  outer loop
    vertex 0.8461729413691561 0.9196489343162085 0
    vertex 0.9042087355342254 0.8413885031923195 0
    vertex 0.9267949192431238 0.9267949192431238 0
  endloop
endfacet
facet normal 0 0 1
  outer loop
    vertex 0.1554440545901894 0.09549528281076358 0
    vertex 0.07989182588315169 0.1534846009817473 0
    vertex 0.07320508075662228 0.07320508075678341 0
  endloop
endfacet
facet normal 0 0 1
  outer loop
    vertex 0.9153656560544171 0.1492667587540349 0
    vertex 0.8508697827248662 0.08304206045590229 0
    vertex 0.9267949192427987 0.07320508075724225 0
  endloop
endfacet
facet normal -0 0 1
  outer loop
    vertex 0.5939694584633959 0.6616225155159264 0
    vertex 0.6585792406651121 0.5996425384524156 0
    vertex 0.6705771365937371 0.6705771365948434 0
  endloop
endfacet
facet normal 0 0 1
  outer loop
    vertex 0.5103162003608498 0.161527005980217 0
    vertex 0.5536498503000198 0.0820529654514504 0
    vertex 0.5907262780271466 0.1542297873709855 0
  endloop
endfacet
facet normal 0 0 1
  outer loop
    vertex 0.2518693992518951 0.2217325686961455 0
    vertex 0.1619767221861357 0.2001657094832424 0
    vertex 0.2231000816164675 0.1513870466406804 0
  endloop
endfacet
facet normal 0 -0 1
  outer loop
    vertex 0.2540998849589767 0.08154625002783644 0
    vertex 0.3000000000033771 0.1535898384893526 0
    vertex 0.2231000816164675 0.1513870466406804 0
  endloop
endfacet
facet normal 0 0 1
  outer loop
    vertex 0.3000000000033771 0.1535898384893526 0
    vertex 0.2518693992518951 0.2217325686961455 0
    vertex 0.2231000816164675 0.1513870466406804 0
  endloop
endfacet
endsolid Created by Gmsh
